<svg xmlns="http://www.w3.org/2000/svg" viewBox="0 0 72.57 59.42">
  <defs>
    <style>
      .cls-1 {
        fill: #2e89aa;
      }

      .cls-2 {
        fill: #fff;
      }
    </style>
  </defs>
  <g id="Layer_2" data-name="Layer 2">
    <g id="vector">
      <g>
        <rect class="cls-1" width="72.57" height="59.42"/>
        <path class="cls-2" d="M53.05,42.28l-6.71-6.72a1.62,1.62,0,0,0-1.15-.47H44.1a14,14,0,1,0-2.43,2.43v1.1a1.61,1.61,0,0,0,.47,1.14l6.72,6.71a1.59,1.59,0,0,0,2.28,0l1.91-1.9A1.62,1.62,0,0,0,53.05,42.28Zm-20-7.19a8.62,8.62,0,1,1,8.62-8.62A8.61,8.61,0,0,1,33.05,35.09Z"/>
      </g>
    </g>
  </g>
</svg>
