<svg xmlns="http://www.w3.org/2000/svg" viewBox="0 0 41.37 41.37">
  <defs>
    <style>
      .cls-1 {
        fill: #dfa13a;
      }
    </style>
  </defs>
  <g id="Layer_2" data-name="Layer 2">
    <g id="vector">
      <path class="cls-1" d="M20.69,10.08A10.61,10.61,0,1,0,31.3,20.68,10.58,10.58,0,0,0,20.69,10.08Zm0,17.5a6.9,6.9,0,1,1,6.9-6.9,6.91,6.91,0,0,1-6.9,6.9ZM34.2,9.64a2.47,2.47,0,1,1-2.47-2.47A2.46,2.46,0,0,1,34.2,9.64Zm7,2.51c-.16-3.31-.91-6.24-3.34-8.66S32.53.31,29.22.15,15.57,0,12.15.15s-6.24.91-8.66,3.33S.31,8.83.15,12.14,0,25.8.15,29.21s.91,6.25,3.34,8.67,5.35,3.17,8.66,3.34,13.66.19,17.07,0,6.25-.91,8.67-3.34,3.17-5.36,3.34-8.67.19-13.64,0-17.06ZM36.82,32.88a7,7,0,0,1-3.94,3.93c-2.72,1.08-9.18.83-12.19.83s-9.48.24-12.19-.83a7,7,0,0,1-3.93-3.93c-1.08-2.73-.83-9.19-.83-12.2S3.5,11.2,4.57,8.49A7,7,0,0,1,8.5,4.56c2.72-1.08,9.18-.83,12.19-.83s9.48-.24,12.19.83a7,7,0,0,1,3.94,3.93c1.08,2.72.83,9.18.83,12.19S37.9,30.16,36.82,32.88Z"/>
    </g>
  </g>
</svg>
